<svg version="1.1" xmlns="http://www.w3.org/2000/svg" x="0" y="0" viewBox="0 0 50 50" xml:space="preserve"><style>.behanceBlank{fill:#fff}</style><path d="M38.4 50H11.6C5.2 50 0 44.8 0 38.4V11.6C0 5.2 5.2 0 11.6 0h26.8C44.8 0 50 5.2 50 11.6v26.8C50 44.8 44.8 50 38.4 50z" fill="deeppink"/><path class="behanceBlank" d="M37.1 18.3h-7.6v-1.9h7.6v1.9zM24.6 26c.5.8.7 1.7.7 2.7 0 1.1-.3 2.1-.8 3-.4.6-.8 1.1-1.3 1.5-.6.5-1.3.8-2.1.9-.8.2-1.7.3-2.6.3H9.9V15.6H19c2.3 0 3.9.7 4.9 2 .6.8.9 1.8.9 2.9 0 1.1-.3 2.1-.9 2.8-.3.4-.8.7-1.4 1.1.9.3 1.6.8 2.1 1.6zm-10.3-3h4c.8 0 1.5-.2 2-.5s.8-.9.8-1.6c0-.9-.3-1.5-1-1.7-.6-.2-1.3-.3-2.2-.3h-3.5V23zm7 5.4c0-1-.4-1.6-1.2-2-.4-.2-1.1-.3-1.9-.3h-4v5h4c.8 0 1.4-.1 1.9-.3.8-.4 1.2-1.2 1.2-2.4zm18.7-3c.1.6.1 1.5.1 2.7h-9.8c.1 1.3.5 2.3 1.4 2.8.5.3 1.2.5 1.9.5.8 0 1.4-.2 1.9-.6.3-.2.5-.5.7-.9h3.6c-.1.8-.5 1.6-1.3 2.4-1.2 1.3-2.9 2-5.1 2-1.8 0-3.4-.6-4.7-1.7-1.4-1.1-2-2.9-2-5.4 0-2.3.6-4.1 1.8-5.4 1.2-1.2 2.8-1.9 4.8-1.9 1.2 0 2.2.2 3.2.6.9.4 1.7 1.1 2.3 2 .6.9 1 1.8 1.2 2.9zm-3.6.3c-.1-.9-.4-1.6-.9-2.1-.6-.5-1.3-.7-2.1-.7-.9 0-1.6.3-2.1.8s-.8 1.2-.9 2.1l6-.1z"/><path class="st1" d="M-106.1-30.9c0 .1-.2.1-.3 0-.1-.1-.2-.2-.1-.2 0-.1.2-.1.3 0 0 .1.1.2.1.2zm-.2-.1M-105.5-30.1c-.1.1-.2 0-.3-.1-.1-.1-.1-.3 0-.3.1-.1.2 0 .3.1.1 0 .1.2 0 .3zm-.1-.2M-104.9-29.2c-.1.1-.3 0-.4-.1-.1-.1-.1-.3 0-.4.1-.1.3 0 .4.1.1.1.1.3 0 .4zm0 0M-104-28.4c-.1.1-.3.1-.4-.1-.1-.1-.2-.3-.1-.4.1-.1.3-.1.4.1.1.2.2.3.1.4zm0 0M-102.8-27.9c0 .1-.2.2-.4.1s-.3-.2-.3-.3c0-.1.2-.2.4-.1s.3.2.3.3zm0 0M-101.6-27.8c0 .1-.1.2-.3.2-.2 0-.3-.1-.3-.2s.1-.2.3-.2c.2 0 .3.1.3.2zm0 0M-100.4-28c0 .1-.1.3-.3.3-.2 0-.4 0-.4-.2 0-.1.1-.3.3-.3.2 0 .4.1.4.2zm0 0"/></svg>