<svg version="1.1" id="レイヤー_1" xmlns="http://www.w3.org/2000/svg" x="0" y="0" viewBox="0 0 50 50" xml:space="preserve"><style>.githubTrail{fill:red}</style><path d="M38.4 50H11.6C5.2 50 0 44.8 0 38.4V11.6C0 5.2 5.2 0 11.6 0h26.8C44.8 0 50 5.2 50 11.6v26.8C50 44.8 44.8 50 38.4 50z" fill="#ff1493"/><path d="M24.6 10.5c-8.7 0-15.7 7-15.7 15.7 0 7 4.5 12.9 10.8 14.9.8.1 1.1-.3 1.1-.8v-2.9c-4.4 1-5.3-1.9-5.3-1.9-.7-1.8-1.7-2.3-1.7-2.3-1.4-1 .1-1 .1-1 1.6.1 2.4 1.6 2.4 1.6 1.4 2.4 3.7 1.7 4.6 1.3.1-1 .5-1.7 1-2.1-3.5-.4-7.2-1.7-7.2-7.8 0-1.7.6-3.1 1.6-4.2-.2-.4-.7-2 .2-4.2 0 0 1.3-.4 4.3 1.6 1.3-.3 2.6-.5 3.9-.5 1.3 0 2.7.2 3.9.5 3-2 4.3-1.6 4.3-1.6.9 2.2.3 3.8.2 4.2 1 1.1 1.6 2.5 1.6 4.2 0 6-3.7 7.4-7.2 7.8.6.5 1.1 1.4 1.1 2.9v4.3c0 .4.3.9 1.1.8 6.3-2.1 10.8-8 10.8-14.9-.1-8.5-7.2-15.6-15.9-15.6z" fill-rule="evenodd" clip-rule="evenodd" fill="#fff"/><path class="githubTrail" d="M14.9 33.1c0 .1-.2.1-.3 0-.1-.1-.2-.2-.1-.2 0-.1.2-.1.3 0 0 .1.1.2.1.2zm-.2-.1M15.5 33.9c-.1.1-.2 0-.3-.1-.1-.1-.1-.3 0-.3.1-.1.2 0 .3.1.1 0 .1.2 0 .3zm-.1-.2M16.1 34.8c-.1.1-.3 0-.4-.1-.1-.1-.1-.3 0-.4.1-.1.3 0 .4.1.1.1.1.3 0 .4zm0 0M17 35.6c-.1.1-.3.1-.4-.1-.1-.1-.2-.3-.1-.4.1-.1.3-.1.4.1.1.2.2.3.1.4zm0 0M18.2 36.1c0 .1-.2.2-.4.1s-.3-.2-.3-.3c0-.1.2-.2.4-.1s.3.2.3.3zm0 0M19.4 36.2c0 .1-.1.2-.3.2-.2 0-.3-.1-.3-.2s.1-.2.3-.2c.2 0 .3.1.3.2zm0 0M20.6 36c0 .1-.1.3-.3.3-.2 0-.4 0-.4-.2 0-.1.1-.3.3-.3.2 0 .4.1.4.2zm0 0"/></svg>