<?xml version="1.0" encoding="utf-8"?>
<!-- Generator: Adobe Illustrator 22.1.0, SVG Export Plug-In . SVG Version: 6.00 Build 0)  -->
<svg version="1.1" id="レイヤー_1" xmlns="http://www.w3.org/2000/svg" xmlns:xlink="http://www.w3.org/1999/xlink" x="0px"
	 y="0px" viewBox="0 0 50 50" style="enable-background:new 0 0 50 50;" xml:space="preserve">
<style type="text/css">
	.st0{fill:#FF00FF;}
	.st1{fill-rule:evenodd;clip-rule:evenodd;fill:#FFFFFF;}
	.st2{fill:#FFFFFF;}
</style>
<path class="st0" d="M38.4,50H11.6C5.2,50,0,44.8,0,38.4V11.6C0,5.2,5.2,0,11.6,0h26.8C44.8,0,50,5.2,50,11.6v26.8
	C50,44.8,44.8,50,38.4,50z"/>
<path class="st1" d="M24.6,10.5c-8.7,0-15.7,7-15.7,15.7c0,7,4.5,12.9,10.8,14.9c0.8,0.1,1.1-0.3,1.1-0.8c0-0.4,0-1.6,0-2.9
	c-4.4,1-5.3-1.9-5.3-1.9c-0.7-1.8-1.7-2.3-1.7-2.3c-1.4-1,0.1-1,0.1-1c1.6,0.1,2.4,1.6,2.4,1.6c1.4,2.4,3.7,1.7,4.6,1.3
	c0.1-1,0.5-1.7,1-2.1c-3.5-0.4-7.2-1.7-7.2-7.8c0-1.7,0.6-3.1,1.6-4.2c-0.2-0.4-0.7-2,0.2-4.2c0,0,1.3-0.4,4.3,1.6
	c1.3-0.3,2.6-0.5,3.9-0.5c1.3,0,2.7,0.2,3.9,0.5c3-2,4.3-1.6,4.3-1.6c0.9,2.2,0.3,3.8,0.2,4.2c1,1.1,1.6,2.5,1.6,4.2
	c0,6-3.7,7.4-7.2,7.8c0.6,0.5,1.1,1.4,1.1,2.9c0,2.1,0,3.8,0,4.3c0,0.4,0.3,0.9,1.1,0.8c6.3-2.1,10.8-8,10.8-14.9
	C40.4,17.6,33.3,10.5,24.6,10.5z"/>
<path class="st2" d="M14.9,33.1c0,0.1-0.2,0.1-0.3,0c-0.1-0.1-0.2-0.2-0.1-0.2c0-0.1,0.2-0.1,0.3,0C14.8,33,14.9,33.1,14.9,33.1
	L14.9,33.1z M14.7,33"/>
<path class="st2" d="M15.5,33.9c-0.1,0.1-0.2,0-0.3-0.1c-0.1-0.1-0.1-0.3,0-0.3c0.1-0.1,0.2,0,0.3,0.1
	C15.6,33.6,15.6,33.8,15.5,33.9L15.5,33.9z M15.4,33.7"/>
<path class="st2" d="M16.1,34.8c-0.1,0.1-0.3,0-0.4-0.1c-0.1-0.1-0.1-0.3,0-0.4c0.1-0.1,0.3,0,0.4,0.1
	C16.2,34.5,16.2,34.7,16.1,34.8L16.1,34.8z M16.1,34.8"/>
<path class="st2" d="M17,35.6c-0.1,0.1-0.3,0.1-0.4-0.1c-0.1-0.1-0.2-0.3-0.1-0.4c0.1-0.1,0.3-0.1,0.4,0.1
	C17,35.4,17.1,35.5,17,35.6L17,35.6z M17,35.6"/>
<path class="st2" d="M18.2,36.1c0,0.1-0.2,0.2-0.4,0.1c-0.2-0.1-0.3-0.2-0.3-0.3c0-0.1,0.2-0.2,0.4-0.1C18.1,35.9,18.2,36,18.2,36.1
	L18.2,36.1z M18.2,36.1"/>
<path class="st2" d="M19.4,36.2c0,0.1-0.1,0.2-0.3,0.2c-0.2,0-0.3-0.1-0.3-0.2c0-0.1,0.1-0.2,0.3-0.2C19.3,36,19.4,36.1,19.4,36.2
	L19.4,36.2z M19.4,36.2"/>
<path class="st2" d="M20.6,36c0,0.1-0.1,0.3-0.3,0.3c-0.2,0-0.4,0-0.4-0.2c0-0.1,0.1-0.3,0.3-0.3C20.4,35.8,20.6,35.9,20.6,36
	L20.6,36z M20.6,36"/>
</svg>
