<svg version="1.1" id="レイヤー_1" xmlns="http://www.w3.org/2000/svg" x="0" y="0" viewBox="0 0 50 50" xml:space="preserve"><style>.instagramBlank{fill:#fff}</style><path id="XMLID_348_" d="M35.5 50h-21C6.5 50 0 43.5 0 35.5v-21C0 6.5 6.5 0 14.5 0h21C43.5 0 50 6.5 50 14.5v21c0 8-6.5 14.5-14.5 14.5z" fill="#ff1493"/><g id="XMLID_340_"><path id="XMLID_345_" class="instagramBlank" d="M30.5 39.1h-11c-4.8 0-8.6-3.9-8.6-8.6v-11c0-4.8 3.9-8.6 8.6-8.6h10.9c4.8 0 8.6 3.9 8.6 8.6v10.9c.1 4.8-3.8 8.7-8.5 8.7zM19.5 13c-3.6 0-6.5 2.9-6.5 6.5v10.9c0 3.6 2.9 6.5 6.5 6.5h10.9c3.6 0 6.5-2.9 6.5-6.5V19.5c0-3.6-2.9-6.5-6.5-6.5H19.5z"/><path id="XMLID_342_" class="instagramBlank" d="M25 32.1c-3.9 0-7.1-3.2-7.1-7.1 0-3.9 3.2-7.1 7.1-7.1 3.9 0 7.1 3.2 7.1 7.1 0 3.9-3.2 7.1-7.1 7.1zM25 20c-2.7 0-5 2.2-5 5 0 2.7 2.2 5 5 5 2.7 0 5-2.2 5-5 0-2.7-2.3-5-5-5z"/><path id="XMLID_341_" class="instagramBlank" d="M34.8 17.1c0 1-.8 1.9-1.9 1.9-1 0-1.9-.8-1.9-1.9 0-1 .8-1.9 1.9-1.9 1 0 1.9.9 1.9 1.9z"/></g></svg>