<?xml version="1.0" encoding="utf-8"?>
<!-- Generator: Adobe Illustrator 22.1.0, SVG Export Plug-In . SVG Version: 6.00 Build 0)  -->
<svg version="1.1" id="レイヤー_1" xmlns="http://www.w3.org/2000/svg" xmlns:xlink="http://www.w3.org/1999/xlink" x="0px"
	 y="0px" viewBox="0 0 50 50" style="enable-background:new 0 0 50 50;" xml:space="preserve">
<style type="text/css">
	.st0{fill:#FF00FF;}
	.st1{fill:#FFFFFF;}
</style>
<g>
	<path id="XMLID_348_" class="st0" d="M35.5,50h-21C6.5,50,0,43.5,0,35.5v-21C0,6.5,6.5,0,14.5,0h21C43.5,0,50,6.5,50,14.5v21
		C50,43.5,43.5,50,35.5,50z"/>
	<g id="XMLID_340_">
		<path id="XMLID_345_" class="st1" d="M30.5,39.1H19.5c-4.8,0-8.6-3.9-8.6-8.6V19.5c0-4.8,3.9-8.6,8.6-8.6h10.9
			c4.8,0,8.6,3.9,8.6,8.6v10.9C39.1,35.2,35.2,39.1,30.5,39.1z M19.5,13c-3.6,0-6.5,2.9-6.5,6.5v10.9c0,3.6,2.9,6.5,6.5,6.5h10.9
			c3.6,0,6.5-2.9,6.5-6.5V19.5c0-3.6-2.9-6.5-6.5-6.5H19.5z"/>
		<path id="XMLID_342_" class="st1" d="M25,32.1c-3.9,0-7.1-3.2-7.1-7.1c0-3.9,3.2-7.1,7.1-7.1c3.9,0,7.1,3.2,7.1,7.1
			C32.1,28.9,28.9,32.1,25,32.1z M25,20c-2.7,0-5,2.2-5,5c0,2.7,2.2,5,5,5c2.7,0,5-2.2,5-5C30,22.3,27.7,20,25,20z"/>
		<path id="XMLID_341_" class="st1" d="M34.8,17.1c0,1-0.8,1.9-1.9,1.9c-1,0-1.9-0.8-1.9-1.9c0-1,0.8-1.9,1.9-1.9
			C33.9,15.2,34.8,16.1,34.8,17.1z"/>
	</g>
</g>
</svg>
