<?xml version="1.0" encoding="utf-8"?>
<!-- Generator: Adobe Illustrator 22.1.0, SVG Export Plug-In . SVG Version: 6.00 Build 0)  -->
<svg version="1.1" id="レイヤー_1" xmlns="http://www.w3.org/2000/svg" xmlns:xlink="http://www.w3.org/1999/xlink" x="0px"
	 y="0px" viewBox="0 0 40 40" style="enable-background:new 0 0 40 40;" xml:space="preserve">
<style type="text/css">
	.st0{fill:#FFFFFF;}
	.st1{fill:#F2F2F2;}
</style>
<g>
	<circle class="st0" cx="20" cy="20" r="19.5"/>
	<path class="st1" d="M20,1c10.5,0,19,8.5,19,19s-8.5,19-19,19S1,30.5,1,20S9.5,1,20,1 M20,0C9,0,0,9,0,20s9,20,20,20s20-9,20-20
		S31,0,20,0L20,0z"/>
</g>
<path d="M20.8,28.5c-2.5,0-4.8-1-6.6-2.7c-1.8-1.8-2.7-4.1-2.7-6.6c0-2.5,1-4.8,2.7-6.6l1-1l13.2,13.2l-1,1
	C25.7,27.5,23.3,28.5,20.8,28.5z M15.4,15.8c-0.6,1-0.9,2.2-0.9,3.4c0,1.7,0.7,3.3,1.9,4.5c1.2,1.2,2.8,1.9,4.5,1.9
	c1.2,0,2.4-0.3,3.4-0.9L15.4,15.8z"/>
</svg>
