<?xml version="1.0" encoding="utf-8"?>
<!-- Generator: Adobe Illustrator 22.1.0, SVG Export Plug-In . SVG Version: 6.00 Build 0)  -->
<svg version="1.1" id="レイヤー_1" xmlns="http://www.w3.org/2000/svg" xmlns:xlink="http://www.w3.org/1999/xlink" x="0px"
	 y="0px" viewBox="0 0 22 22" style="enable-background:new 0 0 22 22;" xml:space="preserve">
<style type="text/css">
	.st0{fill:#CCCCCC;stroke:#CCCCCC;stroke-width:0.9067;stroke-miterlimit:10;}
</style>
<g>
	<path class="st0" d="M12.2,14c-1-0.6-1.8-1.4-2.4-2.3c-0.6-1-0.9-2.1-0.9-3.2c0-1.2,0.3-2.4,1-3.4C8.6,5.4,7.6,6.1,6.7,7.2
		c-0.8,1.1-1.2,2.3-1.2,3.7c0,0.8,0.2,1.6,0.5,2.4c0.3,0.8,0.8,1.4,1.3,2c0.6,0.5,1.2,1,2,1.3c0.8,0.3,1.6,0.5,2.4,0.5
		c0.9,0,1.8-0.2,2.7-0.6c0.8-0.4,1.6-0.9,2.1-1.6c-0.3,0.1-0.7,0.1-1.1,0.1C14.3,14.9,13.2,14.6,12.2,14z"/>
</g>
</svg>
