<?xml version="1.0" encoding="utf-8"?>
<!-- Generator: Adobe Illustrator 22.1.0, SVG Export Plug-In . SVG Version: 6.00 Build 0)  -->
<svg version="1.1" id="レイヤー_1" xmlns="http://www.w3.org/2000/svg" xmlns:xlink="http://www.w3.org/1999/xlink" x="0px"
	 y="0px" viewBox="0 0 50 50" style="enable-background:new 0 0 50 50;" xml:space="preserve">
<style type="text/css">
	.st0{fill:#FF00FF;}
	.st1{fill:#FFFFFF;}
</style>
<path class="st0" d="M38.4,50H11.6C5.2,50,0,44.8,0,38.4V11.6C0,5.2,5.2,0,11.6,0h26.8C44.8,0,50,5.2,50,11.6v26.8
	C50,44.8,44.8,50,38.4,50z"/>
<path class="st1" d="M18.9,39.1C31.2,39.1,38,28.9,38,20c0-0.3,0-0.6,0-0.9c1.3-0.9,2.4-2.1,3.3-3.5c-1.2,0.5-2.5,0.9-3.9,1.1
	c1.4-0.8,2.4-2.2,2.9-3.7c-1.3,0.8-2.8,1.3-4.3,1.6c-2.5-2.7-6.8-2.8-9.5-0.3c-1.7,1.6-2.5,4.1-1.9,6.4c-5.4-0.3-10.4-2.8-13.8-7
	c-1.8,3.1-0.9,7,2.1,9c-1.1,0-2.1-0.3-3-0.8c0,0,0,0.1,0,0.1c0,3.2,2.3,5.9,5.4,6.6c-1,0.3-2,0.3-3,0.1c0.9,2.7,3.4,4.6,6.3,4.7
	c-2.4,1.9-5.3,2.9-8.3,2.9c-0.5,0-1.1,0-1.6-0.1C11.7,38.1,15.2,39.1,18.9,39.1"/>
</svg>
