<svg xmlns="http://www.w3.org/2000/svg" viewBox="0 0 50 50"><path d="M38.4 50H11.6C5.2 50 0 44.8 0 38.4V11.6C0 5.2 5.2 0 11.6 0h26.8C44.8 0 50 5.2 50 11.6v26.8C50 44.8 44.8 50 38.4 50z" fill="#ff1493"/><path d="M18.9 39.1C31.2 39.1 38 28.9 38 20v-.9c1.3-.9 2.4-2.1 3.3-3.5-1.2.5-2.5.9-3.9 1.1 1.4-.8 2.4-2.2 2.9-3.7-1.3.8-2.8 1.3-4.3 1.6-2.5-2.7-6.8-2.8-9.5-.3-1.7 1.6-2.5 4.1-1.9 6.4-5.4-.3-10.4-2.8-13.8-7-1.8 3.1-.9 7 2.1 9-1.1 0-2.1-.3-3-.8v.1c0 3.2 2.3 5.9 5.4 6.6-1 .3-2 .3-3 .1.9 2.7 3.4 4.6 6.3 4.7-2.4 1.9-5.3 2.9-8.3 2.9-.5 0-1.1 0-1.6-.1 3 1.9 6.5 2.9 10.2 2.9" fill="#fff"/></svg>